<?xml version="1.0" encoding="UTF-8" standalone="no"?>
<svg
   xmlns:dc="http://purl.org/dc/elements/1.1/"
   xmlns:cc="http://creativecommons.org/ns#"
   xmlns:rdf="http://www.w3.org/1999/02/22-rdf-syntax-ns#"
   xmlns:svg="http://www.w3.org/2000/svg"
   xmlns="http://www.w3.org/2000/svg"
   xmlns:sodipodi="http://sodipodi.sourceforge.net/DTD/sodipodi-0.dtd"
   xmlns:inkscape="http://www.inkscape.org/namespaces/inkscape"
   width="210mm"
   height="297mm"
   viewBox="0 0 210 297"
   version="1.1"
   id="svg1403"
   inkscape:version="1.0.1 (3bc2e813f5, 2020-09-07)"
   sodipodi:docname="Loading.svg">
  <defs
     id="defs1397" />
  <sodipodi:namedview
     id="base"
     pagecolor="#ffffff"
     bordercolor="#666666"
     borderopacity="1.0"
     inkscape:pageopacity="0.0"
     inkscape:pageshadow="2"
     inkscape:zoom="0.021875"
     inkscape:cx="879.84324"
     inkscape:cy="1390.651"
     inkscape:document-units="mm"
     inkscape:current-layer="layer1"
     inkscape:document-rotation="0"
     showgrid="false"
     inkscape:window-width="1920"
     inkscape:window-height="1051"
     inkscape:window-x="-9"
     inkscape:window-y="-9"
     inkscape:window-maximized="1" />
  <metadata
     id="metadata1400">
    <rdf:RDF>
      <cc:Work
         rdf:about="">
        <dc:format>image/svg+xml</dc:format>
        <dc:type
           rdf:resource="http://purl.org/dc/dcmitype/StillImage" />
        <dc:title></dc:title>
      </cc:Work>
    </rdf:RDF>
  </metadata>
  <g
     inkscape:label="Layer 1"
     inkscape:groupmode="layer"
     id="layer1">
    <rect
       style="fill:#ffe7e7;fill-opacity:1;stroke:#000000;stroke-width:17.196"
       id="rect10"
       width="2325.3096"
       height="1173.238"
       x="-1038.6786"
       y="-673.44354"
       rx="6.4786935"
       ry="20.316427" />
    <g
       id="g700"
       transform="translate(-2066.7739,-29.372085)">
      <g
         id="g707"
         transform="matrix(1,0,-0.97297892,1,360.84091,-4.1577381)">
        <rect
           style="opacity:1;fill:#fe615f;fill-opacity:1;stroke:none;stroke-width:17.196"
           id="rect649"
           width="179.60512"
           height="267.26953"
           x="1736.8406"
           y="107.4772" />
        <rect
           style="opacity:1;fill:#c13339;fill-opacity:1;stroke:none;stroke-width:6.02251"
           id="rect651"
           width="2.8085935"
           height="64.240234"
           x="-1794.7063"
           y="178.24225"
           transform="scale(-1,1)" />
        <rect
           style="opacity:1;fill:#c13339;fill-opacity:1;stroke:none;stroke-width:14.6731"
           id="rect651-0"
           width="5.2330136"
           height="204.66014"
           x="-1769.5446"
           y="165.5657"
           transform="scale(-1,1)" />
        <rect
           style="opacity:1;fill:#eda62f;fill-opacity:1;stroke:none;stroke-width:7.23963"
           id="rect651-7"
           width="3.942522"
           height="66.130119"
           x="-1905.5139"
           y="212.90443"
           transform="scale(-1,1)" />
        <rect
           style="opacity:1;fill:#c13339;fill-opacity:1;stroke:none;stroke-width:6.0225"
           id="rect651-71"
           width="2.8085938"
           height="64.240234"
           x="-1794.5234"
           y="259.29953"
           transform="scale(-1,1)" />
      </g>
    </g>
    <path
       style="fill:#47b6d1;fill-opacity:1;stroke:#000000;stroke-width:0.264583px;stroke-linecap:butt;stroke-linejoin:miter;stroke-opacity:1"
       d="m -533.25965,329.61363 c 0,0 -105.90911,79.4649 -250.9762,-214.69051 -58.4593,-118.5392053 -96.5011,-150.458485 -121.3537,-170.094195 -40.3674,-31.89351 -51.94721,-13.32449 -50.24751,-74.834405 27.67941,-96.8969 323.0891,3.65011 400.1962,104.947695 77.10721,101.29761 22.38121,354.671415 22.38121,354.671415 z"
       id="path645"
       sodipodi:nodetypes="csscsc" />
    <path
       style="fill:#2e87bf;fill-opacity:1;stroke:#000000;stroke-width:0.264583px;stroke-linecap:butt;stroke-linejoin:miter;stroke-opacity:1"
       d="m -945.62605,-144.30097 c 318.5278,52.217695 372.75809,337.84799 417.07011,463.2004 51.63198,9.9107 208.49,-57.7541 53.81779,-272.676295 -157.35509,-218.650215 -416.1474,-251.088105 -470.8879,-190.524105 z"
       id="path647"
       sodipodi:nodetypes="ccsc" />
    <path
       style="fill:#e86926;fill-opacity:1;stroke:#000000;stroke-width:0.260226px;stroke-linecap:butt;stroke-linejoin:miter;stroke-opacity:1"
       d="m -414.64194,-436.31748 2.05589,345.243295 -308.3873,3.22651 z"
       id="path166" />
    <rect
       style="fill:#000000;fill-opacity:0.492386;stroke:none;stroke-width:17.196"
       id="rect170"
       width="668.2619"
       height="163.28572"
       x="-236.36565"
       y="494.56537"
       rx="6.4786935"
       ry="20.316427" />
    <path
       style="fill:#a3b930;fill-opacity:1;stroke:#000000;stroke-width:0.264583px;stroke-linecap:butt;stroke-linejoin:miter;stroke-opacity:1"
       d="m -143.19023,191.02242 -0.62622,152.67401 223.961556,-1.3284 z"
       id="path166-9"
       sodipodi:nodetypes="cccc" />
    <path
       style="fill:#e78d1f;fill-opacity:1;stroke:none;stroke-width:0.264583px;stroke-linecap:butt;stroke-linejoin:miter;stroke-opacity:1"
       d="M -567.33396,-74.938065 H 90.149106 c 0,0 -51.3159,68.4208997 -96.2170003,62.0065 -44.9013497,-6.4145 -65.2138597,99.95879 -65.2138597,99.95879 l -60.937476,-14.96711 0.53459,-6.94899 -204.7285,2.1381 z"
       id="path187"
       sodipodi:nodetypes="ccsccccc" />
    <path
       style="fill:#e56a22;fill-opacity:1;stroke:none;stroke-width:0.264583px;stroke-linecap:butt;stroke-linejoin:miter;stroke-opacity:1"
       d="m -141.29063,49.381515 -1.87092,140.316505 222.368256,146.46371 1.0691,-415.871295 c 0,0 -56.6611,68.42088 -95.6826,67.8864 -39.02127,-0.53451 -65.74826,94.0789 -65.74826,94.0789 z"
       id="path189" />
    <path
       style="fill:#e6af1f;fill-opacity:1;stroke:#000000;stroke-width:0.264583px;stroke-linecap:butt;stroke-linejoin:miter;stroke-opacity:1"
       d="m -574.39836,-67.064065 1.0691,406.249595 235.17492,1.3822 0.44278,-265.088695 z"
       id="path191"
       sodipodi:nodetypes="ccccc" />
    <rect
       style="fill:#ffffff;fill-opacity:1;stroke:none;stroke-width:17.196"
       id="rect193"
       width="87.690475"
       height="172.35715"
       x="-503.46451"
       y="55.294495"
       rx="6.4699998" />
    <rect
       style="fill:#ffffff;fill-opacity:1;stroke:none;stroke-width:17.196"
       id="rect193-1"
       width="87.690475"
       height="172.35715"
       x="-54.428635"
       y="64.366028"
       rx="6.4699998" />
    <rect
       style="opacity:1;fill:#a3b930;fill-opacity:1;stroke:none;stroke-width:17.8391"
       id="rect387"
       width="220.90373"
       height="416.94046"
       x="217.18755"
       y="15.174887"
       rx="6.9629922"
       transform="matrix(0.92919664,-0.36958572,0,1,0,0)" />
    <path
       style="fill:#809d27;fill-opacity:1;stroke:none;stroke-width:0.264583px;stroke-linecap:butt;stroke-linejoin:miter;stroke-opacity:1"
       d="m 409.21091,-22.957685 c 0,0 -69.5478,27.2564997 -80.1807,149.671005 -10.6325,122.4094 -22.3195,-20.8471 -34.7452,-20.8471 0,0 -12.2944,0.53462 -16.036,44.36681 -3.7419,43.8322 -24.5888,173.1907 -24.5888,173.1907 l -41.6941,24.0542 198.8485,-81.78451 z"
       id="path389"
       sodipodi:nodetypes="cscscccc" />
    <path
       style="fill:#e86926;fill-opacity:1;stroke:#000000;stroke-width:0.260226px;stroke-linecap:butt;stroke-linejoin:miter;stroke-opacity:1"
       d="m -228.07746,-435.52218 -2.05589,345.243305 308.387256,3.22649 z"
       id="path166-99" />
    <g
       id="g412"
       transform="rotate(0.40536636,6690.8917,-288340.76)">
      <path
         style="fill:#e78d1f;fill-opacity:1;stroke:none;stroke-width:0.264583px;stroke-linecap:butt;stroke-linejoin:miter;stroke-opacity:1"
         d="m 1853.6518,-408.12843 312.1708,350.657615 194.5722,-74.835475 z"
         id="path406" />
      <path
         style="fill:#e56a22;fill-opacity:1;stroke:none;stroke-width:0.264583px;stroke-linecap:butt;stroke-linejoin:miter;stroke-opacity:1"
         d="m 1999.7106,-245.35342 c 17.1052,-3.74178 73.2318,61.47199 84.9917,39.02135 11.7599,-22.45064 5.3454,-39.02135 41.1595,-30.46873 35.8141,8.55263 41.694,-1.60362 41.694,-1.60362 l 191.365,104.76966 -192.9686,75.370005 z"
         id="path408" />
    </g>
    <text
       xml:space="preserve"
       style="font-style:normal;font-variant:normal;font-weight:normal;font-stretch:normal;font-size:169.185px;line-height:0.85;font-family:'Cambria Math';-inkscape-font-specification:'Cambria Math';text-align:center;letter-spacing:-0.00145267px;word-spacing:-0.000968441px;text-anchor:middle;fill:#5c4e7d;fill-opacity:1;stroke-width:4.22966"
       x="882.28497"
       y="-363.86191"
       id="text711"
       transform="scale(0.96637302,1.0347971)"><tspan
         sodipodi:role="line"
         id="tspan709"
         x="882.28497"
         y="-363.86191"
         style="font-style:normal;font-variant:normal;font-weight:normal;font-stretch:normal;font-family:'Cambria Math';-inkscape-font-specification:'Cambria Math';text-align:center;text-anchor:middle;fill:#5c4e7d;fill-opacity:1;stroke-width:4.22966">THE </tspan><tspan
         sodipodi:role="line"
         x="882.28497"
         y="-220.05466"
         style="font-style:normal;font-variant:normal;font-weight:normal;font-stretch:normal;font-family:'Cambria Math';-inkscape-font-specification:'Cambria Math';text-align:center;text-anchor:middle;fill:#5c4e7d;fill-opacity:1;stroke-width:4.22966"
         id="tspan713"
         dx="0 0 0 0 0 0 -0.00732052"
         dy="0 0 0 0 0 0 -0.010980781"
         rotate="0 0 0 0 0 0 359.39999 0">SHEPERDS </tspan><tspan
         sodipodi:role="line"
         x="882.28424"
         y="-76.247375"
         style="font-style:normal;font-variant:normal;font-weight:normal;font-stretch:normal;font-family:'Cambria Math';-inkscape-font-specification:'Cambria Math';text-align:center;text-anchor:middle;fill:#5c4e7d;fill-opacity:1;stroke-width:4.22966"
         id="tspan715">HEAVEN</tspan></text>
    <text
       xml:space="preserve"
       style="font-size:115.572px;line-height:1.25;font-family:'Comic Sans MS';-inkscape-font-specification:'Comic Sans MS';fill:#ffffff;stroke-width:2.8893"
       x="-169.64078"
       y="597.34973"
       id="text739"
       transform="scale(0.94324904,1.0601654)"><tspan
         sodipodi:role="line"
         id="tspan737"
         x="-169.64078"
         y="597.34973"
         style="fill:#ffffff;stroke-width:2.8893">LOADING</tspan></text>
    <g
       id="g472-3-2"
       transform="matrix(-1,0,0,1,15.124106,-1634.9966)">
      <path
         style="fill:#efa88a;stroke-width:1.43403"
         d="m 636.19171,1370.5256 c 0.0674,-1.7048 0.40041,-2.0515 0.849,-0.8841 0.40593,1.0564 0.35601,2.3185 -0.11094,2.8048 -0.46695,0.4863 -0.79908,-0.378 -0.73806,-1.9207 z m -94.95433,-26.9343 c -0.49231,-0.8295 0.0717,-1.0749 1.3223,-0.5751 2.43445,0.9728 2.87987,2.0218 0.85853,2.0218 -0.72726,0 -1.70864,-0.651 -2.18083,-1.4467 z m 6.66491,-1.0255 c 1.35254,-0.3681 3.56579,-0.3681 4.91833,0 1.35253,0.3681 0.24591,0.6692 -2.45917,0.6692 -2.70507,0 -3.81169,-0.3011 -2.45916,-0.6692 z m 19.70003,-1.4688 c 1.36725,-0.371 3.26432,-0.3466 4.21571,0.054 0.95139,0.4009 -0.16727,0.7045 -2.48591,0.6747 -2.31863,-0.03 -3.09704,-0.3578 -1.7298,-0.7289 z m 18.96031,-1.4843 c 1.74799,-0.35 4.27741,-0.3367 5.62094,0.03 1.34353,0.3662 -0.0866,0.6526 -3.17816,0.6364 -3.09152,-0.016 -4.19077,-0.3159 -2.44278,-0.666 z m -42.29053,-2.8674 c -1.30986,-1.3641 -1.16922,-3.4146 0.23421,-3.4146 0.64407,0 1.17103,0.9878 1.17103,2.1951 0,2.4869 -0.1027,2.576 -1.40524,1.2195 z m 4.42064,-0.024 c 1.0144,-0.4227 2.22642,-0.3707 2.69337,0.1156 0.46694,0.4863 -0.36302,0.8321 -1.84438,0.7686 -1.63701,-0.07 -1.96999,-0.417 -0.84899,-0.8841 z m 19.67328,-2.9268 c 1.01441,-0.4227 2.22642,-0.3707 2.69337,0.1156 0.46695,0.4862 -0.36302,0.8321 -1.84437,0.7686 -1.63702,-0.07 -1.97,-0.417 -0.849,-0.8842 z m -14.12379,-1.4987 c 1.74799,-0.35 4.27742,-0.3368 5.62094,0.03 1.34353,0.3663 -0.0866,0.6527 -3.17816,0.6365 -3.09152,-0.016 -4.19076,-0.316 -2.44278,-0.666 z m 21.41345,-0.4284 -3.51309,-1.1717 3.78147,-0.1458 c 2.0798,-0.08 4.17228,0.5126 4.64994,1.3175 0.98724,1.6635 0.0695,1.6635 -4.91832,0 z m 12.64711,-1.4634 c 2.72441,-1.8335 4.21571,-1.8335 4.21571,0 0,0.8049 -1.4228,1.4533 -3.16178,1.441 -2.55674,-0.018 -2.75842,-0.2939 -1.05393,-1.441 z m -51.97216,-5 c 0.03,-2.2143 2.74066,-6.3927 2.76743,-4.266 0.0118,0.9403 0.36491,2.6415 0.78461,3.7805 0.45478,1.2342 -0.11297,2.0709 -1.40524,2.0709 -1.19258,0 -2.15864,-0.7134 -2.1468,-1.5854 z m 17.98305,1.0735 c 1.0144,-0.4227 2.22642,-0.3707 2.69336,0.1155 0.46695,0.4863 -0.36302,0.8322 -1.84437,0.7687 -1.63701,-0.07 -1.96999,-0.417 -0.84899,-0.8842 z m 9.83664,-1.4634 c 1.0144,-0.4227 2.22642,-0.3707 2.69337,0.1155 0.46694,0.4863 -0.36302,0.8322 -1.84437,0.7686 -1.63702,-0.07 -1.97,-0.4169 -0.849,-0.8841 z m 9.74882,-1.4329 c 0.9661,-0.406 2.54698,-0.406 3.51308,0 0.9661,0.406 0.17566,0.7381 -1.75654,0.7381 -1.9322,0 -2.72264,-0.3321 -1.75654,-0.7381 z m 9.92447,-1.4939 c 1.0144,-0.4227 2.22642,-0.3708 2.69336,0.1155 0.46695,0.4863 -0.36302,0.8322 -1.84437,0.7686 -1.63702,-0.07 -1.97,-0.4169 -0.84899,-0.8841 z m 9.74881,-1.4329 c 0.9661,-0.406 2.54699,-0.406 3.51309,0 0.9661,0.4059 0.17565,0.7381 -1.75654,0.7381 -1.9322,0 -2.72265,-0.3322 -1.75655,-0.7381 z m 64.15598,-5.2503 -2.67696,-3.2927 3.16178,2.7878 c 2.97128,2.6198 3.8015,3.7975 2.67696,3.7975 -0.26666,0 -1.68946,-1.4817 -3.16178,-3.2926 z m -121.41929,0.3658 c 0,-0.8048 0.66967,-1.4634 1.48816,-1.4634 0.8185,0 1.09736,0.6586 0.61969,1.4634 -0.47767,0.8049 -1.14734,1.4634 -1.48817,1.4634 -0.34082,0 -0.61968,-0.6585 -0.61968,-1.4634 z m 72.38125,-0.02 c 0.92298,-1.5553 -4.1705,-6.5657 -6.67448,-6.5657 -0.90936,0 -2.04407,-1.9894 -2.52159,-4.4208 -0.47752,-2.4315 -2.00638,-6.2298 -3.39747,-8.4408 -2.50637,-3.9835 -2.4939,-4.054 1.37736,-7.7903 4.59463,-4.4344 10.42345,-3.9926 15.72258,1.1917 3.43919,3.3647 5.33991,2.6129 6.29758,-2.4909 l 0.54918,-2.9268 1.51545,2.9268 c 0.8335,1.6098 1.94274,5.996 2.46497,9.7473 0.86553,6.2172 0.56753,7.2735 -3.36931,11.9429 -3.81242,4.5219 -14.06988,10.3746 -11.96427,6.8266 z m 28.53217,-8.2971 c 1.0144,-0.4227 2.22641,-0.3707 2.69337,0.1156 0.46694,0.4862 -0.36303,0.8321 -1.84438,0.7686 -1.63702,-0.07 -1.97,-0.417 -0.84899,-0.8842 z m -10.70445,-15.8295 c 0.0286,-2.4146 0.34358,-3.2252 0.69986,-1.8014 0.35629,1.4239 0.33286,3.3995 -0.0521,4.3903 -0.38493,0.9907 -0.67644,-0.1742 -0.6478,-2.5889 z m -41.02576,-10.0646 c 0,-0.3039 1.10663,-1.4563 2.45916,-2.561 2.22878,-1.8203 2.27849,-1.7685 0.53056,0.5525 -1.83576,2.4377 -2.98972,3.2129 -2.98972,2.0085 z"
         id="path498-4-4" />
      <path
         style="fill:#e9d54e;stroke-width:1.43403"
         d="m 593.27525,1338.3185 c -0.53217,-3.6957 -0.75059,-6.9454 -0.48538,-7.2216 0.26521,-0.2762 3.6964,-0.9462 7.62487,-1.4889 7.02481,-0.9705 7.1925,-0.9028 10.16247,4.1017 1.66089,2.7986 3.01981,5.4427 3.01981,5.8756 0,1.1891 -12.70709,5.4527 -16.25097,5.4527 -2.60974,0 -3.25707,-1.0686 -4.0708,-6.7195 z m 25.24437,-9.625 c -0.44504,-1.8763 -0.94425,-5.3275 -1.10935,-7.6693 -0.2775,-3.9362 0.21243,-4.3967 6.48791,-6.0979 3.73344,-1.0121 11.98167,-2.2907 18.3294,-2.8414 9.53706,-0.8273 11.85587,-0.6065 13.35255,1.2716 5.78444,7.2583 -5.50545,13.888 -30.3345,17.8132 -5.37978,0.8505 -5.99027,0.6257 -6.72601,-2.4762 z"
         id="path496-4-7" />
      <path
         style="fill:#e69774;stroke-width:1.43403"
         d="m 541.25878,1331.485 c -0.54493,-1.8019 -1.16375,-4.264 -1.37513,-5.4713 -0.21139,-1.2073 -0.82964,-4.1707 -1.37389,-6.5854 -0.80885,-3.5885 -0.29006,-3.1264 2.84119,2.5312 3.02713,5.4695 4.44772,6.78 6.77193,6.2471 1.61765,-0.3709 14.32359,-2.3131 28.23542,-4.316 13.91182,-2.0029 28.4555,-4.2658 32.31929,-5.0287 3.86379,-0.7629 7.20137,-1.2035 7.41684,-0.9791 0.21548,0.2244 0.68889,2.8247 1.05203,5.7785 0.64635,5.2573 0.56414,5.3659 -3.90375,5.1525 -8.20393,-0.3918 -68.07607,4.0699 -69.83874,5.2044 -0.63492,0.4086 -1.60026,-0.7313 -2.14519,-2.5332 z m 77.16143,-17.3389 c -0.4449,-0.7496 0.8674,-3.4376 2.91623,-5.9733 3.10109,-3.838 3.5673,-5.4865 2.78295,-9.8405 -0.93825,-5.2084 -0.92027,-5.1971 4.29986,2.7058 l 5.24205,7.9361 -3.16165,2.6661 c -1.7389,1.4664 -3.88203,2.7165 -4.76251,2.7781 -0.88047,0.062 -2.70497,0.3322 -4.05444,0.6014 -1.34947,0.2691 -2.81759,-0.124 -3.26249,-0.8737 z"
         id="path494-0-9" />
      <path
         style="fill:#f0af2f;stroke-width:1.43403"
         d="m 635.72946,1412.1171 c -4.51533,-1.7174 -4.6978,-3.4535 -1.89755,-18.0551 1.0805,-5.6341 2.35549,-13.6149 2.83332,-17.7351 l 0.86877,-7.4913 -13.41387,-17.1951 c -17.7415,-22.7426 -17.72168,-22.7 -10.57255,-22.7 3.14886,0 5.67038,0.7079 5.67038,1.592 0,1.043 2.0597,1.2719 5.97224,0.6639 18.57691,-2.8872 29.90711,-7.4691 31.82573,-12.8704 1.02179,-2.8764 1.72629,-2.313 7.7335,6.185 13.62641,19.2764 19.83007,33.7461 23.96177,55.8893 1.25184,6.7091 2.58927,13.7132 2.97207,15.5648 0.61534,2.9763 -0.51732,3.9502 -9.7731,8.4037 -17.48621,8.4136 -36.18373,11.5507 -46.18071,7.7483 z m -28.88034,-94.198 c 0.41068,-0.4277 2.16147,-1.0614 3.89066,-1.4082 1.72919,-0.3468 3.9717,-1.3459 4.98336,-2.2203 1.27704,-1.1037 2.11827,-1.1197 2.75165,-0.053 0.50176,0.8455 -0.74782,2.1945 -2.77684,2.9979 -3.8738,1.5338 -10.12943,2.0167 -8.84883,0.683 z m 25.17445,-7.7234 c 1.61576,-2.6943 4.03344,-2.804 15.29908,-0.6941 l 4.91832,0.9211 -6.32355,1.1017 c -3.47796,0.6059 -8.38407,1.1505 -10.90248,1.2102 -4.07556,0.097 -4.4044,-0.1826 -2.99137,-2.5389 z"
         id="path492-1-4" />
      <path
         style="fill:#da795a;stroke-width:1.43403"
         d="m 539.96076,1335.373 c -2.8589,-9.4449 -2.26018,-11.7707 1.12032,-4.3519 1.28117,2.8117 2.92756,5.4971 3.65863,5.9676 0.73108,0.4705 10.64633,-0.4893 22.0339,-2.1329 26.32673,-3.8 25.74489,-3.8151 25.74489,0.67 0,2.0122 -0.50596,3.6585 -1.12434,3.6585 -3.12789,0 -39.60309,3.0118 -43.94519,3.6287 -5.01504,0.7124 -5.02293,0.7045 -7.48821,-7.44 z"
         id="path488-2-8" />
      <path
         style="fill:#56748b;stroke-width:1.43403"
         d="m 731.45748,1525.4027 c -1.74793,-2.321 -1.69822,-2.3728 0.53056,-0.5525 1.35254,1.1047 2.45916,2.2571 2.45916,2.561 0,1.2044 -1.15396,0.4292 -2.98972,-2.0085 z m -22.48375,-24.8779 c -1.74793,-2.321 -1.69823,-2.3728 0.53056,-0.5525 1.35254,1.1047 2.45916,2.2571 2.45916,2.561 0,1.2044 -1.15397,0.4292 -2.98972,-2.0085 z"
         id="path484-8-7" />
      <path
         style="fill:#305875;stroke-width:1.43403"
         d="m 620.07313,1541.3914 c -0.47117,-0.7939 -5.52059,-15.6422 -11.22094,-32.9961 l -10.36426,-31.5526 16.12716,-31.1465 c 8.86993,-17.1306 16.59484,-31.6668 17.16645,-32.3027 0.57162,-0.6359 4.10738,-0.4401 7.85726,0.435 9.27709,2.1651 22.89948,-0.175 38.04728,-6.5359 l 11.92652,-5.0083 1.1696,3.2059 c 0.64329,1.7633 5.90602,16.4353 11.69497,32.6045 8.96841,25.0498 11.97687,31.6523 20.33777,44.6339 5.3968,8.3794 15.88987,24.9421 23.31793,36.8061 13.2115,21.1012 13.43018,21.5905 10.04397,22.4756 -1.90387,0.4976 -4.89384,0.5304 -6.64437,0.073 -1.75053,-0.4576 -15.50427,-14.5705 -30.56386,-31.3621 -26.47806,-29.5233 -27.86767,-31.3814 -42.13603,-56.3431 -8.11523,-14.1971 -15.16912,-25.8383 -15.6753,-25.8694 -0.84739,-0.052 -40.11541,48.2676 -42.36945,52.136 -0.54641,0.9377 1.93964,14.3179 5.52456,29.7337 3.74485,16.1034 5.9908,28.5648 5.27882,29.2888 -2.0498,2.0844 -8.60014,3.271 -9.51808,1.7243 z"
         id="path480-7-5" />
      <path
         style="fill:#8b3728;stroke-width:1.43403"
         d="m 623.62931,1290.4503 c -1.98207,-5.9068 -4.81662,-6.5555 -5.56302,-1.273 -0.50338,3.5626 -2.76131,4.239 -3.89353,1.1663 -0.40771,-1.1064 -3.24927,-3.1895 -6.31458,-4.6289 l -5.57329,-2.6173 -4.03762,4.0284 c -4.30233,4.2926 -7.13735,3.9299 -11.43491,-1.4627 -1.73516,-2.1773 -1.40046,-2.9499 2.896,-6.6853 4.9931,-4.3409 17.72123,-10.037 22.42832,-10.037 7.16798,0 14.989,12.8162 13.85827,22.7093 l -0.49876,4.3638 z"
         id="path478-6-4" />
    </g>
    <g
       id="g472-3-3"
       transform="translate(-506.28913,-1659.5518)">
      <path
         style="fill:#efa88a;stroke-width:1.43403"
         d="m 636.19171,1370.5256 c 0.0674,-1.7048 0.40041,-2.0515 0.849,-0.8841 0.40593,1.0564 0.35601,2.3185 -0.11094,2.8048 -0.46695,0.4863 -0.79908,-0.378 -0.73806,-1.9207 z m -94.95433,-26.9343 c -0.49231,-0.8295 0.0717,-1.0749 1.3223,-0.5751 2.43445,0.9728 2.87987,2.0218 0.85853,2.0218 -0.72726,0 -1.70864,-0.651 -2.18083,-1.4467 z m 6.66491,-1.0255 c 1.35254,-0.3681 3.56579,-0.3681 4.91833,0 1.35253,0.3681 0.24591,0.6692 -2.45917,0.6692 -2.70507,0 -3.81169,-0.3011 -2.45916,-0.6692 z m 19.70003,-1.4688 c 1.36725,-0.371 3.26432,-0.3466 4.21571,0.054 0.95139,0.4009 -0.16727,0.7045 -2.48591,0.6747 -2.31863,-0.03 -3.09704,-0.3578 -1.7298,-0.7289 z m 18.96031,-1.4843 c 1.74799,-0.35 4.27741,-0.3367 5.62094,0.03 1.34353,0.3662 -0.0866,0.6526 -3.17816,0.6364 -3.09152,-0.016 -4.19077,-0.3159 -2.44278,-0.666 z m -42.29053,-2.8674 c -1.30986,-1.3641 -1.16922,-3.4146 0.23421,-3.4146 0.64407,0 1.17103,0.9878 1.17103,2.1951 0,2.4869 -0.1027,2.576 -1.40524,1.2195 z m 4.42064,-0.024 c 1.0144,-0.4227 2.22642,-0.3707 2.69337,0.1156 0.46694,0.4863 -0.36302,0.8321 -1.84438,0.7686 -1.63701,-0.07 -1.96999,-0.417 -0.84899,-0.8841 z m 19.67328,-2.9268 c 1.01441,-0.4227 2.22642,-0.3707 2.69337,0.1156 0.46695,0.4862 -0.36302,0.8321 -1.84437,0.7686 -1.63702,-0.07 -1.97,-0.417 -0.849,-0.8842 z m -14.12379,-1.4987 c 1.74799,-0.35 4.27742,-0.3368 5.62094,0.03 1.34353,0.3663 -0.0866,0.6527 -3.17816,0.6365 -3.09152,-0.016 -4.19076,-0.316 -2.44278,-0.666 z m 21.41345,-0.4284 -3.51309,-1.1717 3.78147,-0.1458 c 2.0798,-0.08 4.17228,0.5126 4.64994,1.3175 0.98724,1.6635 0.0695,1.6635 -4.91832,0 z m 12.64711,-1.4634 c 2.72441,-1.8335 4.21571,-1.8335 4.21571,0 0,0.8049 -1.4228,1.4533 -3.16178,1.441 -2.55674,-0.018 -2.75842,-0.2939 -1.05393,-1.441 z m -51.97216,-5 c 0.03,-2.2143 2.74066,-6.3927 2.76743,-4.266 0.0118,0.9403 0.36491,2.6415 0.78461,3.7805 0.45478,1.2342 -0.11297,2.0709 -1.40524,2.0709 -1.19258,0 -2.15864,-0.7134 -2.1468,-1.5854 z m 17.98305,1.0735 c 1.0144,-0.4227 2.22642,-0.3707 2.69336,0.1155 0.46695,0.4863 -0.36302,0.8322 -1.84437,0.7687 -1.63701,-0.07 -1.96999,-0.417 -0.84899,-0.8842 z m 9.83664,-1.4634 c 1.0144,-0.4227 2.22642,-0.3707 2.69337,0.1155 0.46694,0.4863 -0.36302,0.8322 -1.84437,0.7686 -1.63702,-0.07 -1.97,-0.4169 -0.849,-0.8841 z m 9.74882,-1.4329 c 0.9661,-0.406 2.54698,-0.406 3.51308,0 0.9661,0.406 0.17566,0.7381 -1.75654,0.7381 -1.9322,0 -2.72264,-0.3321 -1.75654,-0.7381 z m 9.92447,-1.4939 c 1.0144,-0.4227 2.22642,-0.3708 2.69336,0.1155 0.46695,0.4863 -0.36302,0.8322 -1.84437,0.7686 -1.63702,-0.07 -1.97,-0.4169 -0.84899,-0.8841 z m 9.74881,-1.4329 c 0.9661,-0.406 2.54699,-0.406 3.51309,0 0.9661,0.4059 0.17565,0.7381 -1.75654,0.7381 -1.9322,0 -2.72265,-0.3322 -1.75655,-0.7381 z m 64.15598,-5.2503 -2.67696,-3.2927 3.16178,2.7878 c 2.97128,2.6198 3.8015,3.7975 2.67696,3.7975 -0.26666,0 -1.68946,-1.4817 -3.16178,-3.2926 z m -121.41929,0.3658 c 0,-0.8048 0.66967,-1.4634 1.48816,-1.4634 0.8185,0 1.09736,0.6586 0.61969,1.4634 -0.47767,0.8049 -1.14734,1.4634 -1.48817,1.4634 -0.34082,0 -0.61968,-0.6585 -0.61968,-1.4634 z m 72.38125,-0.02 c 0.92298,-1.5553 -4.1705,-6.5657 -6.67448,-6.5657 -0.90936,0 -2.04407,-1.9894 -2.52159,-4.4208 -0.47752,-2.4315 -2.00638,-6.2298 -3.39747,-8.4408 -2.50637,-3.9835 -2.4939,-4.054 1.37736,-7.7903 4.59463,-4.4344 10.42345,-3.9926 15.72258,1.1917 3.43919,3.3647 5.33991,2.6129 6.29758,-2.4909 l 0.54918,-2.9268 1.51545,2.9268 c 0.8335,1.6098 1.94274,5.996 2.46497,9.7473 0.86553,6.2172 0.56753,7.2735 -3.36931,11.9429 -3.81242,4.5219 -14.06988,10.3746 -11.96427,6.8266 z m 28.53217,-8.2971 c 1.0144,-0.4227 2.22641,-0.3707 2.69337,0.1156 0.46694,0.4862 -0.36303,0.8321 -1.84438,0.7686 -1.63702,-0.07 -1.97,-0.417 -0.84899,-0.8842 z m -10.70445,-15.8295 c 0.0286,-2.4146 0.34358,-3.2252 0.69986,-1.8014 0.35629,1.4239 0.33286,3.3995 -0.0521,4.3903 -0.38493,0.9907 -0.67644,-0.1742 -0.6478,-2.5889 z m -41.02576,-10.0646 c 0,-0.3039 1.10663,-1.4563 2.45916,-2.561 2.22878,-1.8203 2.27849,-1.7685 0.53056,0.5525 -1.83576,2.4377 -2.98972,3.2129 -2.98972,2.0085 z"
         id="path498-4-3" />
      <path
         style="fill:#e9d54e;stroke-width:1.43403"
         d="m 593.27525,1338.3185 c -0.53217,-3.6957 -0.75059,-6.9454 -0.48538,-7.2216 0.26521,-0.2762 3.6964,-0.9462 7.62487,-1.4889 7.02481,-0.9705 7.1925,-0.9028 10.16247,4.1017 1.66089,2.7986 3.01981,5.4427 3.01981,5.8756 0,1.1891 -12.70709,5.4527 -16.25097,5.4527 -2.60974,0 -3.25707,-1.0686 -4.0708,-6.7195 z m 25.24437,-9.625 c -0.44504,-1.8763 -0.94425,-5.3275 -1.10935,-7.6693 -0.2775,-3.9362 0.21243,-4.3967 6.48791,-6.0979 3.73344,-1.0121 11.98167,-2.2907 18.3294,-2.8414 9.53706,-0.8273 11.85587,-0.6065 13.35255,1.2716 5.78444,7.2583 -5.50545,13.888 -30.3345,17.8132 -5.37978,0.8505 -5.99027,0.6257 -6.72601,-2.4762 z"
         id="path496-4-4" />
      <path
         style="fill:#e69774;stroke-width:1.43403"
         d="m 541.25878,1331.485 c -0.54493,-1.8019 -1.16375,-4.264 -1.37513,-5.4713 -0.21139,-1.2073 -0.82964,-4.1707 -1.37389,-6.5854 -0.80885,-3.5885 -0.29006,-3.1264 2.84119,2.5312 3.02713,5.4695 4.44772,6.78 6.77193,6.2471 1.61765,-0.3709 14.32359,-2.3131 28.23542,-4.316 13.91182,-2.0029 28.4555,-4.2658 32.31929,-5.0287 3.86379,-0.7629 7.20137,-1.2035 7.41684,-0.9791 0.21548,0.2244 0.68889,2.8247 1.05203,5.7785 0.64635,5.2573 0.56414,5.3659 -3.90375,5.1525 -8.20393,-0.3918 -68.07607,4.0699 -69.83874,5.2044 -0.63492,0.4086 -1.60026,-0.7313 -2.14519,-2.5332 z m 77.16143,-17.3389 c -0.4449,-0.7496 0.8674,-3.4376 2.91623,-5.9733 3.10109,-3.838 3.5673,-5.4865 2.78295,-9.8405 -0.93825,-5.2084 -0.92027,-5.1971 4.29986,2.7058 l 5.24205,7.9361 -3.16165,2.6661 c -1.7389,1.4664 -3.88203,2.7165 -4.76251,2.7781 -0.88047,0.062 -2.70497,0.3322 -4.05444,0.6014 -1.34947,0.2691 -2.81759,-0.124 -3.26249,-0.8737 z"
         id="path494-0-95" />
      <path
         style="fill:#f0af2f;stroke-width:1.43403"
         d="m 635.72946,1412.1171 c -4.51533,-1.7174 -4.6978,-3.4535 -1.89755,-18.0551 1.0805,-5.6341 2.35549,-13.6149 2.83332,-17.7351 l 0.86877,-7.4913 -13.41387,-17.1951 c -17.7415,-22.7426 -17.72168,-22.7 -10.57255,-22.7 3.14886,0 5.67038,0.7079 5.67038,1.592 0,1.043 2.0597,1.2719 5.97224,0.6639 18.57691,-2.8872 29.90711,-7.4691 31.82573,-12.8704 1.02179,-2.8764 1.72629,-2.313 7.7335,6.185 13.62641,19.2764 19.83007,33.7461 23.96177,55.8893 1.25184,6.7091 2.58927,13.7132 2.97207,15.5648 0.61534,2.9763 -0.51732,3.9502 -9.7731,8.4037 -17.48621,8.4136 -36.18373,11.5507 -46.18071,7.7483 z m -28.88034,-94.198 c 0.41068,-0.4277 2.16147,-1.0614 3.89066,-1.4082 1.72919,-0.3468 3.9717,-1.3459 4.98336,-2.2203 1.27704,-1.1037 2.11827,-1.1197 2.75165,-0.053 0.50176,0.8455 -0.74782,2.1945 -2.77684,2.9979 -3.8738,1.5338 -10.12943,2.0167 -8.84883,0.683 z m 25.17445,-7.7234 c 1.61576,-2.6943 4.03344,-2.804 15.29908,-0.6941 l 4.91832,0.9211 -6.32355,1.1017 c -3.47796,0.6059 -8.38407,1.1505 -10.90248,1.2102 -4.07556,0.097 -4.4044,-0.1826 -2.99137,-2.5389 z"
         id="path492-1-3" />
      <path
         style="fill:#da795a;stroke-width:1.43403"
         d="m 539.96076,1335.373 c -2.8589,-9.4449 -2.26018,-11.7707 1.12032,-4.3519 1.28117,2.8117 2.92756,5.4971 3.65863,5.9676 0.73108,0.4705 10.64633,-0.4893 22.0339,-2.1329 26.32673,-3.8 25.74489,-3.8151 25.74489,0.67 0,2.0122 -0.50596,3.6585 -1.12434,3.6585 -3.12789,0 -39.60309,3.0118 -43.94519,3.6287 -5.01504,0.7124 -5.02293,0.7045 -7.48821,-7.44 z"
         id="path488-2-6" />
      <path
         style="fill:#56748b;stroke-width:1.43403"
         d="m 731.45748,1525.4027 c -1.74793,-2.321 -1.69822,-2.3728 0.53056,-0.5525 1.35254,1.1047 2.45916,2.2571 2.45916,2.561 0,1.2044 -1.15396,0.4292 -2.98972,-2.0085 z m -22.48375,-24.8779 c -1.74793,-2.321 -1.69823,-2.3728 0.53056,-0.5525 1.35254,1.1047 2.45916,2.2571 2.45916,2.561 0,1.2044 -1.15397,0.4292 -2.98972,-2.0085 z"
         id="path484-8-72" />
      <path
         style="fill:#305875;stroke-width:1.43403"
         d="m 620.07313,1541.3914 c -0.47117,-0.7939 -5.52059,-15.6422 -11.22094,-32.9961 l -10.36426,-31.5526 16.12716,-31.1465 c 8.86993,-17.1306 16.59484,-31.6668 17.16645,-32.3027 0.57162,-0.6359 4.10738,-0.4401 7.85726,0.435 9.27709,2.1651 22.89948,-0.175 38.04728,-6.5359 l 11.92652,-5.0083 1.1696,3.2059 c 0.64329,1.7633 5.90602,16.4353 11.69497,32.6045 8.96841,25.0498 11.97687,31.6523 20.33777,44.6339 5.3968,8.3794 15.88987,24.9421 23.31793,36.8061 13.2115,21.1012 13.43018,21.5905 10.04397,22.4756 -1.90387,0.4976 -4.89384,0.5304 -6.64437,0.073 -1.75053,-0.4576 -15.50427,-14.5705 -30.56386,-31.3621 -26.47806,-29.5233 -27.86767,-31.3814 -42.13603,-56.3431 -8.11523,-14.1971 -15.16912,-25.8383 -15.6753,-25.8694 -0.84739,-0.052 -40.11541,48.2676 -42.36945,52.136 -0.54641,0.9377 1.93964,14.3179 5.52456,29.7337 3.74485,16.1034 5.9908,28.5648 5.27882,29.2888 -2.0498,2.0844 -8.60014,3.271 -9.51808,1.7243 z"
         id="path480-7-9" />
      <path
         style="fill:#8b3728;stroke-width:1.43403"
         d="m 623.62931,1290.4503 c -1.98207,-5.9068 -4.81662,-6.5555 -5.56302,-1.273 -0.50338,3.5626 -2.76131,4.239 -3.89353,1.1663 -0.40771,-1.1064 -3.24927,-3.1895 -6.31458,-4.6289 l -5.57329,-2.6173 -4.03762,4.0284 c -4.30233,4.2926 -7.13735,3.9299 -11.43491,-1.4627 -1.73516,-2.1773 -1.40046,-2.9499 2.896,-6.6853 4.9931,-4.3409 17.72123,-10.037 22.42832,-10.037 7.16798,0 14.989,12.8162 13.85827,22.7093 l -0.49876,4.3638 z"
         id="path478-6-2" />
    </g>
    <g
       id="g472-3-3-0"
       transform="translate(-141.46629,-1229.248)">
      <path
         style="fill:#efa88a;stroke-width:1.43403"
         d="m 636.19171,1370.5256 c 0.0674,-1.7048 0.40041,-2.0515 0.849,-0.8841 0.40593,1.0564 0.35601,2.3185 -0.11094,2.8048 -0.46695,0.4863 -0.79908,-0.378 -0.73806,-1.9207 z m -94.95433,-26.9343 c -0.49231,-0.8295 0.0717,-1.0749 1.3223,-0.5751 2.43445,0.9728 2.87987,2.0218 0.85853,2.0218 -0.72726,0 -1.70864,-0.651 -2.18083,-1.4467 z m 6.66491,-1.0255 c 1.35254,-0.3681 3.56579,-0.3681 4.91833,0 1.35253,0.3681 0.24591,0.6692 -2.45917,0.6692 -2.70507,0 -3.81169,-0.3011 -2.45916,-0.6692 z m 19.70003,-1.4688 c 1.36725,-0.371 3.26432,-0.3466 4.21571,0.054 0.95139,0.4009 -0.16727,0.7045 -2.48591,0.6747 -2.31863,-0.03 -3.09704,-0.3578 -1.7298,-0.7289 z m 18.96031,-1.4843 c 1.74799,-0.35 4.27741,-0.3367 5.62094,0.03 1.34353,0.3662 -0.0866,0.6526 -3.17816,0.6364 -3.09152,-0.016 -4.19077,-0.3159 -2.44278,-0.666 z m -42.29053,-2.8674 c -1.30986,-1.3641 -1.16922,-3.4146 0.23421,-3.4146 0.64407,0 1.17103,0.9878 1.17103,2.1951 0,2.4869 -0.1027,2.576 -1.40524,1.2195 z m 4.42064,-0.024 c 1.0144,-0.4227 2.22642,-0.3707 2.69337,0.1156 0.46694,0.4863 -0.36302,0.8321 -1.84438,0.7686 -1.63701,-0.07 -1.96999,-0.417 -0.84899,-0.8841 z m 19.67328,-2.9268 c 1.01441,-0.4227 2.22642,-0.3707 2.69337,0.1156 0.46695,0.4862 -0.36302,0.8321 -1.84437,0.7686 -1.63702,-0.07 -1.97,-0.417 -0.849,-0.8842 z m -14.12379,-1.4987 c 1.74799,-0.35 4.27742,-0.3368 5.62094,0.03 1.34353,0.3663 -0.0866,0.6527 -3.17816,0.6365 -3.09152,-0.016 -4.19076,-0.316 -2.44278,-0.666 z m 21.41345,-0.4284 -3.51309,-1.1717 3.78147,-0.1458 c 2.0798,-0.08 4.17228,0.5126 4.64994,1.3175 0.98724,1.6635 0.0695,1.6635 -4.91832,0 z m 12.64711,-1.4634 c 2.72441,-1.8335 4.21571,-1.8335 4.21571,0 0,0.8049 -1.4228,1.4533 -3.16178,1.441 -2.55674,-0.018 -2.75842,-0.2939 -1.05393,-1.441 z m -51.97216,-5 c 0.03,-2.2143 2.74066,-6.3927 2.76743,-4.266 0.0118,0.9403 0.36491,2.6415 0.78461,3.7805 0.45478,1.2342 -0.11297,2.0709 -1.40524,2.0709 -1.19258,0 -2.15864,-0.7134 -2.1468,-1.5854 z m 17.98305,1.0735 c 1.0144,-0.4227 2.22642,-0.3707 2.69336,0.1155 0.46695,0.4863 -0.36302,0.8322 -1.84437,0.7687 -1.63701,-0.07 -1.96999,-0.417 -0.84899,-0.8842 z m 9.83664,-1.4634 c 1.0144,-0.4227 2.22642,-0.3707 2.69337,0.1155 0.46694,0.4863 -0.36302,0.8322 -1.84437,0.7686 -1.63702,-0.07 -1.97,-0.4169 -0.849,-0.8841 z m 9.74882,-1.4329 c 0.9661,-0.406 2.54698,-0.406 3.51308,0 0.9661,0.406 0.17566,0.7381 -1.75654,0.7381 -1.9322,0 -2.72264,-0.3321 -1.75654,-0.7381 z m 9.92447,-1.4939 c 1.0144,-0.4227 2.22642,-0.3708 2.69336,0.1155 0.46695,0.4863 -0.36302,0.8322 -1.84437,0.7686 -1.63702,-0.07 -1.97,-0.4169 -0.84899,-0.8841 z m 9.74881,-1.4329 c 0.9661,-0.406 2.54699,-0.406 3.51309,0 0.9661,0.4059 0.17565,0.7381 -1.75654,0.7381 -1.9322,0 -2.72265,-0.3322 -1.75655,-0.7381 z m 64.15598,-5.2503 -2.67696,-3.2927 3.16178,2.7878 c 2.97128,2.6198 3.8015,3.7975 2.67696,3.7975 -0.26666,0 -1.68946,-1.4817 -3.16178,-3.2926 z m -121.41929,0.3658 c 0,-0.8048 0.66967,-1.4634 1.48816,-1.4634 0.8185,0 1.09736,0.6586 0.61969,1.4634 -0.47767,0.8049 -1.14734,1.4634 -1.48817,1.4634 -0.34082,0 -0.61968,-0.6585 -0.61968,-1.4634 z m 72.38125,-0.02 c 0.92298,-1.5553 -4.1705,-6.5657 -6.67448,-6.5657 -0.90936,0 -2.04407,-1.9894 -2.52159,-4.4208 -0.47752,-2.4315 -2.00638,-6.2298 -3.39747,-8.4408 -2.50637,-3.9835 -2.4939,-4.054 1.37736,-7.7903 4.59463,-4.4344 10.42345,-3.9926 15.72258,1.1917 3.43919,3.3647 5.33991,2.6129 6.29758,-2.4909 l 0.54918,-2.9268 1.51545,2.9268 c 0.8335,1.6098 1.94274,5.996 2.46497,9.7473 0.86553,6.2172 0.56753,7.2735 -3.36931,11.9429 -3.81242,4.5219 -14.06988,10.3746 -11.96427,6.8266 z m 28.53217,-8.2971 c 1.0144,-0.4227 2.22641,-0.3707 2.69337,0.1156 0.46694,0.4862 -0.36303,0.8321 -1.84438,0.7686 -1.63702,-0.07 -1.97,-0.417 -0.84899,-0.8842 z m -10.70445,-15.8295 c 0.0286,-2.4146 0.34358,-3.2252 0.69986,-1.8014 0.35629,1.4239 0.33286,3.3995 -0.0521,4.3903 -0.38493,0.9907 -0.67644,-0.1742 -0.6478,-2.5889 z m -41.02576,-10.0646 c 0,-0.3039 1.10663,-1.4563 2.45916,-2.561 2.22878,-1.8203 2.27849,-1.7685 0.53056,0.5525 -1.83576,2.4377 -2.98972,3.2129 -2.98972,2.0085 z"
         id="path498-4-3-8" />
      <path
         style="fill:#e9d54e;stroke-width:1.43403"
         d="m 593.27525,1338.3185 c -0.53217,-3.6957 -0.75059,-6.9454 -0.48538,-7.2216 0.26521,-0.2762 3.6964,-0.9462 7.62487,-1.4889 7.02481,-0.9705 7.1925,-0.9028 10.16247,4.1017 1.66089,2.7986 3.01981,5.4427 3.01981,5.8756 0,1.1891 -12.70709,5.4527 -16.25097,5.4527 -2.60974,0 -3.25707,-1.0686 -4.0708,-6.7195 z m 25.24437,-9.625 c -0.44504,-1.8763 -0.94425,-5.3275 -1.10935,-7.6693 -0.2775,-3.9362 0.21243,-4.3967 6.48791,-6.0979 3.73344,-1.0121 11.98167,-2.2907 18.3294,-2.8414 9.53706,-0.8273 11.85587,-0.6065 13.35255,1.2716 5.78444,7.2583 -5.50545,13.888 -30.3345,17.8132 -5.37978,0.8505 -5.99027,0.6257 -6.72601,-2.4762 z"
         id="path496-4-4-0" />
      <path
         style="fill:#e69774;stroke-width:1.43403"
         d="m 541.25878,1331.485 c -0.54493,-1.8019 -1.16375,-4.264 -1.37513,-5.4713 -0.21139,-1.2073 -0.82964,-4.1707 -1.37389,-6.5854 -0.80885,-3.5885 -0.29006,-3.1264 2.84119,2.5312 3.02713,5.4695 4.44772,6.78 6.77193,6.2471 1.61765,-0.3709 14.32359,-2.3131 28.23542,-4.316 13.91182,-2.0029 28.4555,-4.2658 32.31929,-5.0287 3.86379,-0.7629 7.20137,-1.2035 7.41684,-0.9791 0.21548,0.2244 0.68889,2.8247 1.05203,5.7785 0.64635,5.2573 0.56414,5.3659 -3.90375,5.1525 -8.20393,-0.3918 -68.07607,4.0699 -69.83874,5.2044 -0.63492,0.4086 -1.60026,-0.7313 -2.14519,-2.5332 z m 77.16143,-17.3389 c -0.4449,-0.7496 0.8674,-3.4376 2.91623,-5.9733 3.10109,-3.838 3.5673,-5.4865 2.78295,-9.8405 -0.93825,-5.2084 -0.92027,-5.1971 4.29986,2.7058 l 5.24205,7.9361 -3.16165,2.6661 c -1.7389,1.4664 -3.88203,2.7165 -4.76251,2.7781 -0.88047,0.062 -2.70497,0.3322 -4.05444,0.6014 -1.34947,0.2691 -2.81759,-0.124 -3.26249,-0.8737 z"
         id="path494-0-95-5" />
      <path
         style="fill:#f0af2f;stroke-width:1.43403"
         d="m 635.72946,1412.1171 c -4.51533,-1.7174 -4.6978,-3.4535 -1.89755,-18.0551 1.0805,-5.6341 2.35549,-13.6149 2.83332,-17.7351 l 0.86877,-7.4913 -13.41387,-17.1951 c -17.7415,-22.7426 -17.72168,-22.7 -10.57255,-22.7 3.14886,0 5.67038,0.7079 5.67038,1.592 0,1.043 2.0597,1.2719 5.97224,0.6639 18.57691,-2.8872 29.90711,-7.4691 31.82573,-12.8704 1.02179,-2.8764 1.72629,-2.313 7.7335,6.185 13.62641,19.2764 19.83007,33.7461 23.96177,55.8893 1.25184,6.7091 2.58927,13.7132 2.97207,15.5648 0.61534,2.9763 -0.51732,3.9502 -9.7731,8.4037 -17.48621,8.4136 -36.18373,11.5507 -46.18071,7.7483 z m -28.88034,-94.198 c 0.41068,-0.4277 2.16147,-1.0614 3.89066,-1.4082 1.72919,-0.3468 3.9717,-1.3459 4.98336,-2.2203 1.27704,-1.1037 2.11827,-1.1197 2.75165,-0.053 0.50176,0.8455 -0.74782,2.1945 -2.77684,2.9979 -3.8738,1.5338 -10.12943,2.0167 -8.84883,0.683 z m 25.17445,-7.7234 c 1.61576,-2.6943 4.03344,-2.804 15.29908,-0.6941 l 4.91832,0.9211 -6.32355,1.1017 c -3.47796,0.6059 -8.38407,1.1505 -10.90248,1.2102 -4.07556,0.097 -4.4044,-0.1826 -2.99137,-2.5389 z"
         id="path492-1-3-2" />
      <path
         style="fill:#da795a;stroke-width:1.43403"
         d="m 539.96076,1335.373 c -2.8589,-9.4449 -2.26018,-11.7707 1.12032,-4.3519 1.28117,2.8117 2.92756,5.4971 3.65863,5.9676 0.73108,0.4705 10.64633,-0.4893 22.0339,-2.1329 26.32673,-3.8 25.74489,-3.8151 25.74489,0.67 0,2.0122 -0.50596,3.6585 -1.12434,3.6585 -3.12789,0 -39.60309,3.0118 -43.94519,3.6287 -5.01504,0.7124 -5.02293,0.7045 -7.48821,-7.44 z"
         id="path488-2-6-9" />
      <path
         style="fill:#56748b;stroke-width:1.43403"
         d="m 731.45748,1525.4027 c -1.74793,-2.321 -1.69822,-2.3728 0.53056,-0.5525 1.35254,1.1047 2.45916,2.2571 2.45916,2.561 0,1.2044 -1.15396,0.4292 -2.98972,-2.0085 z m -22.48375,-24.8779 c -1.74793,-2.321 -1.69823,-2.3728 0.53056,-0.5525 1.35254,1.1047 2.45916,2.2571 2.45916,2.561 0,1.2044 -1.15397,0.4292 -2.98972,-2.0085 z"
         id="path484-8-72-1" />
      <path
         style="fill:#305875;stroke-width:1.43403"
         d="m 620.07313,1541.3914 c -0.47117,-0.7939 -5.52059,-15.6422 -11.22094,-32.9961 l -10.36426,-31.5526 16.12716,-31.1465 c 8.86993,-17.1306 16.59484,-31.6668 17.16645,-32.3027 0.57162,-0.6359 4.10738,-0.4401 7.85726,0.435 9.27709,2.1651 22.89948,-0.175 38.04728,-6.5359 l 11.92652,-5.0083 1.1696,3.2059 c 0.64329,1.7633 5.90602,16.4353 11.69497,32.6045 8.96841,25.0498 11.97687,31.6523 20.33777,44.6339 5.3968,8.3794 15.88987,24.9421 23.31793,36.8061 13.2115,21.1012 13.43018,21.5905 10.04397,22.4756 -1.90387,0.4976 -4.89384,0.5304 -6.64437,0.073 -1.75053,-0.4576 -15.50427,-14.5705 -30.56386,-31.3621 -26.47806,-29.5233 -27.86767,-31.3814 -42.13603,-56.3431 -8.11523,-14.1971 -15.16912,-25.8383 -15.6753,-25.8694 -0.84739,-0.052 -40.11541,48.2676 -42.36945,52.136 -0.54641,0.9377 1.93964,14.3179 5.52456,29.7337 3.74485,16.1034 5.9908,28.5648 5.27882,29.2888 -2.0498,2.0844 -8.60014,3.271 -9.51808,1.7243 z"
         id="path480-7-9-8" />
      <path
         style="fill:#8b3728;stroke-width:1.43403"
         d="m 623.62931,1290.4503 c -1.98207,-5.9068 -4.81662,-6.5555 -5.56302,-1.273 -0.50338,3.5626 -2.76131,4.239 -3.89353,1.1663 -0.40771,-1.1064 -3.24927,-3.1895 -6.31458,-4.6289 l -5.57329,-2.6173 -4.03762,4.0284 c -4.30233,4.2926 -7.13735,3.9299 -11.43491,-1.4627 -1.73516,-2.1773 -1.40046,-2.9499 2.896,-6.6853 4.9931,-4.3409 17.72123,-10.037 22.42832,-10.037 7.16798,0 14.989,12.8162 13.85827,22.7093 l -0.49876,4.3638 z"
         id="path478-6-2-5" />
    </g>
  </g>
</svg>
